# xmcd
#
# Track frame offsets: 
#        150
#        98270
#        230714
#        243060
#
# Disc length: 3403 seconds
#
# Revision: 1
# Processed by: cddbd v1.5.2PL0 Copyright (c) Steve Scherf et al.
# Submitted via: ExactAudioCopyFreeDBPlugin 1.0
#
DISCID=200d4904
DTITLE=Hank Snow - The Yodelling Ranger, Vol. 5
DYEAR=1900
DGENRE=Country
TTITLE0=Life Story, Part 1
TTITLE1=Life Stroy, Part 2
TTITLE2=Marriage And Divorce (Demo)
TTITLE3=I Don't Hurt Anymore (Demo)
EXTD=
EXTT0=
EXTT1=
EXTT2=
EXTT3=
PLAYORDER=
